<?xml version="1.0" encoding="UTF-8"?>
<!--Generator: Apple Native CoreSVG 341-->
<!DOCTYPE svg
PUBLIC "-//W3C//DTD SVG 1.1//EN"
       "http://www.w3.org/Graphics/SVG/1.1/DTD/svg11.dtd">
<svg version="1.1" xmlns="http://www.w3.org/2000/svg" xmlns:xlink="http://www.w3.org/1999/xlink" viewBox="0 0 418.128 358.404">
 <g>
  <rect height="358.404" opacity="0" width="418.128" x="0" y="0"/>
  <path d="M289.24 309.182C289.24 316.8 282.795 323.245 275.177 323.245L199.97 323.245L228.058 295.12L275.177 295.12C282.795 295.12 289.24 301.37 289.24 309.182Z" fill="black" fill-opacity="0.85"/>
  <path d="M395.099 309.182C395.099 316.8 388.654 323.245 381.037 323.245L324.592 323.245C316.974 323.245 310.529 316.8 310.529 309.182C310.529 301.37 316.974 295.12 324.592 295.12L381.037 295.12C388.654 295.12 395.099 301.37 395.099 309.182Z" fill="black" fill-opacity="0.85"/>
  <path d="M41.9743 255.667L100.177 313.675C124.787 338.284 151.545 339.261 174.787 316.018L322.052 168.557C336.506 154.3 336.31 133.792 321.467 118.948L236.506 34.1824C221.857 19.3387 201.349 18.9481 187.092 33.4012L39.6306 180.862C16.5837 204.104 17.5603 230.862 41.9743 255.667ZM61.8962 235.745C50.1775 223.831 49.5915 210.94 60.529 199.612L205.842 54.4949C209.162 51.1746 213.654 51.1746 216.779 54.2996L301.545 138.87C304.67 141.995 304.474 146.487 301.349 149.807L155.842 294.925C144.904 306.253 132.013 305.667 120.099 293.753ZM64.8259 174.417L181.037 290.823L198.42 273.44L82.5993 157.62Z" fill="black" fill-opacity="0.85"/>
 </g>
</svg>
